<svg version="1.1" xmlns="http://www.w3.org/2000/svg" width="1204" height="484">
  <defs>
    <style type="text/css">
      <![CDATA[
        rect {
          opacity: 0.8;
          fill: #6094CC;
          stroke-width: 1;
          stroke: #222222;
        }
        rect.port {
          opacity: 1;
          fill: #FD4659;
        }
        text {
          font-size: 10px;
          font-family: sans-serif;
          /* in elk's coordinates "hanging" would be the correct value" */
          dominant-baseline: hanging;
          text-align: left;
        }
        g.port > text {
          font-size: 8px;
        }
        polyline {
          fill: none;
          stroke: black;
          stroke-width: 1;
        }
        path {
          fill: none;
          stroke: black;
          stroke-width: 1;
        }
        rect.s223property {
          fill: #32BF84;
        }
      ]]>
    </style>
    <marker id="arrow" markerWidth="10" markerHeight="8" refX="10" refY="4" orient="auto">
      <path d="M0,7 L10,4 L0,1 L0,7" style="fill: #000000;" />
    </marker>
  </defs>
  <g>
    <polyline points="448,164 438,164 438,302 220,302 220,266.6666666666667 230,266.6666666666667" id="3d9d9cd8fa6c7bf6" class="edge" marker-end="url(#arrow)" />
    <polyline points="230,237.33333333333334 12,237.33333333333334 12,272.6666666666667 22,272.6666666666667" id="f6d275219d116f49" class="edge" marker-end="url(#arrow)" />
    <polyline points="22,302 12,302 12,446.6666666666667 230,446.6666666666667" id="08d3e1e707c344f0" class="edge" marker-end="url(#arrow)" />
    <polyline points="230,417.3333333333333 220,417.3333333333333 220,382 656,382" id="7b9b8fd71d40d59c" class="edge" marker-end="url(#arrow)" />
    <polyline points="656,411.33333333333337 646,411.33333333333337 646,446.6666666666667 854,446.6666666666667 854,276.66666666666663 864,276.66666666666663" id="a96ee80d00c9876b" class="edge" marker-end="url(#arrow)" />
    <polyline points="864,247.33333333333331 646,247.33333333333331 646,212 656,212" id="b2493b091b1adc2a" class="edge" marker-end="url(#arrow)" />
    <polyline points="656,182.66666666666666 646,182.66666666666666 646,92 438,92 438,120 448,120" id="954c7e3b98713ef9" class="edge" marker-end="url(#arrow)" />
    <polyline points="448,164 438,164 438,362 418,362" id="f304a39308d11230" class="edge" stroke-dasharray="2,2" />
    <polyline points="448,164 438,164 438,322 418,322" id="3c8f65451f098f32" class="edge" stroke-dasharray="2,2" />
    <polyline points="448,120 438,120 438,62 418,62" id="aa2dabc50164bcaf" class="edge" stroke-dasharray="2,2" />
    <polyline points="448,120 438,120 438,22 418,22" id="f08e216d9a63b128" class="edge" stroke-dasharray="2,2" />
    <polyline points="448,142 428,142 428,182 418,182" id="db9a2ce74e522b29" class="edge" stroke-dasharray="2,2" />
    <polyline points="448,142 428,142 428,102 418,102" id="2f8914461e06bafd" class="edge" stroke-dasharray="2,2" />
    <polyline points="448,142 418,142" id="92f18c9a39f73b15" class="edge" stroke-dasharray="2,2" />
    <polyline points="864,247.33333333333331 854,247.33333333333331 854,201.99999999999997 1072,201.99999999999997" id="21b0aed9f295dd88" class="edge" stroke-dasharray="2,2" />
    <polyline points="864,247.33333333333331 854,247.33333333333331 854,201.99999999999997 1062,201.99999999999997 1062,241.99999999999997 1072,241.99999999999997" id="99d77bec78adff73" class="edge" stroke-dasharray="2,2" />
    <polyline points="864,247.33333333333331 854,247.33333333333331 854,201.99999999999997 1062,201.99999999999997 1062,282 1072,282" id="14c9867a3cfd63e3" class="edge" stroke-dasharray="2,2" />
    <polyline points="656,212 646,212 646,292 636,292" id="bb99a52601c892b5" class="edge" stroke-dasharray="2,2" />
    <polyline points="656,212 636,212" id="d2e86d05f1351d9a" class="edge" stroke-dasharray="2,2" />
    <polyline points="656,212 646,212 646,252 636,252" id="87bdaff297c96fd8" class="edge" stroke-dasharray="2,2" />
    <rect id="heating-coil-1stage" class="node" x="30" y="247.33333333333334" width="180" height="80" />
    <g transform="translate(30,247.33333333333334)">
      <rect id="heating-coil-1stage:heating-coil-out" class="port inlet node" x="-8" y="50.66666666666667" width="8" height="8" />
      <g id="heating-coil-1stage:heating-coil-out" class="port inlet port" transform="translate(-8,50.66666666666667)">
        <text class="label" x="9" y="4" width="0" height="0">
          heating-coil-out
        </text>
      </g>
      <rect id="heating-coil-1stage:heating-coil-in" class="port inlet node" x="-8" y="21.333333333333336" width="8" height="8" />
      <g id="heating-coil-1stage:heating-coil-in" class="port inlet port" transform="translate(-8,21.333333333333336)">
        <text class="label" x="9" y="4" width="0" height="0">
          heating-coil-in
        </text>
      </g>
      <text class="label" x="50" y="5" width="80" height="20">
        heating-coil-1stage
      </text>
    </g>
    <rect id="fan" class="node" x="238" y="392" width="180" height="80" />
    <g transform="translate(238,392)">
      <rect id="fan:fan-in" class="port inlet node" x="-8" y="50.66666666666667" width="8" height="8" />
      <g id="fan:fan-in" class="port inlet port" transform="translate(-8,50.66666666666667)">
        <text class="label" x="9" y="4" width="0" height="0">
          fan-in
        </text>
      </g>
      <rect id="fan:fan-out" class="port inlet node" x="-8" y="21.333333333333336" width="8" height="8" />
      <g id="fan:fan-out" class="port inlet port" transform="translate(-8,21.333333333333336)">
        <text class="label" x="9" y="4" width="0" height="0">
          fan-out
        </text>
      </g>
      <text class="label" x="50" y="5" width="80" height="20">
        fan
      </text>
    </g>
    <rect id="cooling-coil-2stage" class="node" x="238" y="212" width="180" height="80" />
    <g transform="translate(238,212)">
      <rect id="cooling-coil-2stage:cooling-coil-in" class="port inlet node" x="-8" y="50.66666666666667" width="8" height="8" />
      <g id="cooling-coil-2stage:cooling-coil-in" class="port inlet port" transform="translate(-8,50.66666666666667)">
        <text class="label" x="9" y="4" width="0" height="0">
          cooling-coil-in
        </text>
      </g>
      <rect id="cooling-coil-2stage:cooling-coil-out" class="port inlet node" x="-8" y="21.333333333333336" width="8" height="8" />
      <g id="cooling-coil-2stage:cooling-coil-out" class="port inlet port" transform="translate(-8,21.333333333333336)">
        <text class="label" x="9" y="4" width="0" height="0">
          cooling-coil-out
        </text>
      </g>
      <text class="label" x="50" y="5" width="80" height="20">
        cooling-coil-2stage
      </text>
    </g>
    <rect id="zone1-hvac-space" class="node" x="664" y="157.33333333333331" width="180" height="80" />
    <g transform="translate(664,157.33333333333331)">
      <rect id="zone1-hvac-space:zone1-hvac-space-out" class="port inlet node" x="-8" y="21.333333333333336" width="8" height="8" />
      <g id="zone1-hvac-space:zone1-hvac-space-out" class="port inlet port" transform="translate(-8,21.333333333333336)">
        <text class="label" x="9" y="4" width="0" height="0">
          zone1-hvac-space-out
        </text>
      </g>
      <rect id="zone1-hvac-space:zone1-hvac-space-in" class="port inlet node" x="-8" y="50.66666666666667" width="8" height="8" />
      <g id="zone1-hvac-space:zone1-hvac-space-in" class="port inlet port" transform="translate(-8,50.66666666666667)">
        <text class="label" x="9" y="4" width="0" height="0">
          zone1-hvac-space-in
        </text>
      </g>
      <text class="label" x="50" y="5" width="80" height="20">
        zone1-hvac-space
      </text>
    </g>
    <rect id="vav1-dmp" class="node" x="664" y="356.6666666666667" width="180" height="80" />
    <g transform="translate(664,356.6666666666667)">
      <rect id="vav1-dmp:vav1-dmp-out" class="port inlet node" x="-8" y="50.66666666666667" width="8" height="8" />
      <g id="vav1-dmp:vav1-dmp-out" class="port inlet port" transform="translate(-8,50.66666666666667)">
        <text class="label" x="9" y="4" width="0" height="0">
          vav1-dmp-out
        </text>
      </g>
      <rect id="vav1-dmp:vav1-dmp-in" class="port inlet node" x="-8" y="21.333333333333336" width="8" height="8" />
      <g id="vav1-dmp:vav1-dmp-in" class="port inlet port" transform="translate(-8,21.333333333333336)">
        <text class="label" x="9" y="4" width="0" height="0">
          vav1-dmp-in
        </text>
      </g>
      <text class="label" x="50" y="5" width="80" height="20">
        vav1-dmp
      </text>
    </g>
    <rect id="economizer" class="node" x="456" y="102" width="180" height="80" />
    <g transform="translate(456,102)">
      <rect id="economizer:economizer-outside-air" class="port inlet node" x="-8" y="36" width="8" height="8" />
      <g id="economizer:economizer-outside-air" class="port inlet port" transform="translate(-8,36)">
        <text class="label" x="9" y="4" width="0" height="0">
          economizer-outside-air
        </text>
      </g>
      <rect id="economizer:economizer-mixed-air" class="port inlet node" x="-8" y="58" width="8" height="8" />
      <g id="economizer:economizer-mixed-air" class="port inlet port" transform="translate(-8,58)">
        <text class="label" x="9" y="4" width="0" height="0">
          economizer-mixed-air
        </text>
      </g>
      <rect id="economizer:economizer-return-air" class="port inlet node" x="-8" y="14" width="8" height="8" />
      <g id="economizer:economizer-return-air" class="port inlet port" transform="translate(-8,14)">
        <text class="label" x="9" y="4" width="0" height="0">
          economizer-return-air
        </text>
      </g>
      <text class="label" x="50" y="5" width="80" height="20">
        economizer
      </text>
    </g>
    <rect id="vav1-rhc" class="node" x="872" y="221.99999999999997" width="180" height="80" />
    <g transform="translate(872,221.99999999999997)">
      <rect id="vav1-rhc:vav1-rhc-out" class="port inlet node" x="-8" y="21.333333333333336" width="8" height="8" />
      <g id="vav1-rhc:vav1-rhc-out" class="port inlet port" transform="translate(-8,21.333333333333336)">
        <text class="label" x="9" y="4" width="0" height="0">
          vav1-rhc-out
        </text>
      </g>
      <rect id="vav1-rhc:vav1-rhc-in" class="port inlet node" x="-8" y="50.66666666666667" width="8" height="8" />
      <g id="vav1-rhc:vav1-rhc-in" class="port inlet port" transform="translate(-8,50.66666666666667)">
        <text class="label" x="9" y="4" width="0" height="0">
          vav1-rhc-in
        </text>
      </g>
      <text class="label" x="50" y="5" width="80" height="20">
        vav1-rhc
      </text>
    </g>
    <rect id="economizer-mix-air-flow" class="node s223property node" x="298" y="352" width="120" height="20" />
    <g transform="translate(298,352)">
      <text class="label" x="0" y="0" width="20" height="20">
        mixed air flow
      </text>
    </g>
    <rect id="economizer-mix-air-humidity" class="node s223property node" x="298" y="312" width="120" height="20" />
    <g transform="translate(298,312)">
      <text class="label" x="0" y="0" width="20" height="20">
        mixed air humidity
      </text>
    </g>
    <rect id="economizer-return-air-humidity" class="node s223property node" x="298" y="52" width="120" height="20" />
    <g transform="translate(298,52)">
      <text class="label" x="0" y="0" width="20" height="20">
        return air humidity
      </text>
    </g>
    <rect id="economizer-return-air-temp" class="node s223property node" x="298" y="12" width="120" height="20" />
    <g transform="translate(298,12)">
      <text class="label" x="0" y="0" width="20" height="20">
        return air temperature
      </text>
    </g>
    <rect id="economizer-outside-air-flow" class="node s223property node" x="298" y="172" width="120" height="20" />
    <g transform="translate(298,172)">
      <text class="label" x="0" y="0" width="20" height="20">
        outside air flow
      </text>
    </g>
    <rect id="economizer-outside-air-temp" class="node s223property node" x="298" y="92" width="120" height="20" />
    <g transform="translate(298,92)">
      <text class="label" x="0" y="0" width="20" height="20">
        outside air temperature
      </text>
    </g>
    <rect id="economizer-outside-air-humidity" class="node s223property node" x="298" y="132" width="120" height="20" />
    <g transform="translate(298,132)">
      <text class="label" x="0" y="0" width="20" height="20">
        outside air humidity
      </text>
    </g>
    <rect id="vav1-sup-air-flow" class="node s223property node" x="1072" y="191.99999999999997" width="120" height="20" />
    <g transform="translate(1072,191.99999999999997)">
      <text class="label" x="0" y="0" width="20" height="20">
        supply air flow
      </text>
    </g>
    <rect id="vav1-sup-air-temp" class="node s223property node" x="1072" y="231.99999999999997" width="120" height="20" />
    <g transform="translate(1072,231.99999999999997)">
      <text class="label" x="0" y="0" width="20" height="20">
        supply air temperature
      </text>
    </g>
    <rect id="vav1-sup-air-humidity" class="node s223property node" x="1072" y="272" width="120" height="20" />
    <g transform="translate(1072,272)">
      <text class="label" x="0" y="0" width="20" height="20">
        supply air humidity
      </text>
    </g>
    <rect id="zone1-temp" class="node s223property node" x="516" y="282" width="120" height="20" />
    <g transform="translate(516,282)">
      <text class="label" x="0" y="0" width="20" height="20">
        Temperature
      </text>
    </g>
    <rect id="zone1-flow" class="node s223property node" x="516" y="202" width="120" height="20" />
    <g transform="translate(516,202)">
      <text class="label" x="0" y="0" width="20" height="20">
        Zone Air Flow
      </text>
    </g>
    <rect id="zone1-humidity" class="node s223property node" x="516" y="242" width="120" height="20" />
    <g transform="translate(516,242)">
      <text class="label" x="0" y="0" width="20" height="20">
        Humidity
      </text>
    </g>
  </g>
</svg>
