<svg version="1.1" xmlns="http://www.w3.org/2000/svg" width="1405" height="744">
  <defs>
    <style type="text/css">
      <![CDATA[
        rect {
          opacity: 0.8;
          fill: #6094CC;
          stroke-width: 1;
          stroke: #222222;
        }
        rect.port {
          opacity: 1;
          fill: #6094CC;
        }
        rect.connectionpoint {
          opacity: 1;
          fill: #FD4659;
        }
        text {
          font-size: 10px;
          font-family: sans-serif;
          /* in elk's coordinates "hanging" would be the correct value" */
          dominant-baseline: hanging;
          text-align: left;
        }
        g.port > text {
          font-size: 8px;
        }
        polyline {
          fill: none;
          stroke: black;
          stroke-width: 1;
        }
        path {
          fill: none;
          stroke: black;
          stroke-width: 1;
        }
        rect.s223property {
          fill: #32BF84;
        }
        rect.sensor {
          fill: #9DBCD4;
        }
      ]]>
    </style>
    <marker id="arrow" markerWidth="10" markerHeight="8" refX="10" refY="4" orient="auto">
      <path d="M0,7 L10,4 L0,1 L0,7" style="fill: #000000;" />
    </marker>
  </defs>
  <g>
    <polyline points="411,370 391,370 391,332 183,332 183,216.66666666666669 193,216.66666666666669" id="4ccc512f28b8863e" class="edge" marker-end="url(#arrow)" />
    <polyline points="193,187.33333333333334 183,187.33333333333334 183,134 411,134" id="2d233c19a0113fbd" class="edge" marker-end="url(#arrow)" />
    <polyline points="411,163.33333333333334 401,163.33333333333334 401,198.66666666666669 609,198.66666666666669 609,362.00000000000006 629,362.00000000000006" id="3160a62208fb1b43" class="edge" marker-end="url(#arrow)" />
    <polyline points="629,332.6666666666667 619,332.6666666666667 619,275.33333333333337 847,275.33333333333337" id="a5b3feecd9c58548" class="edge" marker-end="url(#arrow)" />
    <polyline points="847,246.00000000000003 837,246.00000000000003 837,210.66666666666669 1055,210.66666666666669 1055,656.6666666666666 1065,656.6666666666666" id="b13f3d2a9b444323" class="edge" marker-end="url(#arrow)" />
    <polyline points="1065,627.3333333333334 609,627.3333333333334 609,592 629,592" id="d02cbd7ab2cb6bb9" class="edge" marker-end="url(#arrow)" />
    <polyline points="629,562.6666666666667 609,562.6666666666667 609,442 401,442 401,414 411,414" id="80d8d95826bab2f1" class="edge" marker-end="url(#arrow)" />
    <polyline points="411,370 391,370 391,312 347,312" id="683518c0f2073909" class="edge" stroke-dasharray="2,2" />
    <polyline points="411,370 391,370 391,352 380,352" id="45d1d3e8e599ed7c" class="edge" stroke-dasharray="2,2" />
    <polyline points="411,414 401,414 401,512 347,512" id="6582dd32e19376d1" class="edge" stroke-dasharray="2,2" />
    <polyline points="411,414 401,414 401,552 347,552" id="9e620c2044bc3726" class="edge" stroke-dasharray="2,2" />
    <polyline points="411,392 391,392 391,472 347,472" id="921919e963dbff48" class="edge" stroke-dasharray="2,2" />
    <polyline points="411,392 391,392 391,432 347,432" id="4075835cde579227" class="edge" stroke-dasharray="2,2" />
    <polyline points="411,392 347,392" id="ab1103e19f8b3c0e" class="edge" stroke-dasharray="2,2" />
    <polyline points="1065,627.3333333333334 1045,627.3333333333334 1045,732 1263,732 1263,718.6666666666667 1273,718.6666666666667" id="a0fcb9dc6e812292" class="edge" stroke-dasharray="2,2" />
    <polyline points="1065,627.3333333333334 1045,627.3333333333334 1045,280.6666666666667 1273,280.6666666666667" id="8534df2bfbb3eba3" class="edge" stroke-dasharray="2,2" />
    <polyline points="1065,627.3333333333334 1045,627.3333333333334 1045,280.6666666666667 1263,280.6666666666667 1263,227.33333333333337 1273,227.33333333333337" id="9461b676c28eba37" class="edge" stroke-dasharray="2,2" />
    <polyline points="629,592 609,592 609,672 565,672" id="ab0c0df599b435e9" class="edge" stroke-dasharray="2,2" />
    <polyline points="629,592 565,592" id="b79fd024d8e444e3" class="edge" stroke-dasharray="2,2" />
    <polyline points="629,592 609,592 609,632 565,632" id="e741054c3ee4a1ac" class="edge" stroke-dasharray="2,2" />
    <polyline points="381,188.66666666666666 391,188.66666666666666 391,28.666666666666664 419,28.666666666666664" id="0e97827601ddc807" class="edge" stroke-dasharray="2,2" />
    <polyline points="381,215.33333333333334 419,215.33333333333334" id="ab4241e3da4eec11" class="edge" stroke-dasharray="2,2" />
    <polyline points="599,148.66666666666669 637,148.66666666666669" id="1f9d26d64ae767df" class="edge" stroke-dasharray="2,2" />
    <polyline points="599,128.66666666666669 609,128.66666666666669 609,72 637,72" id="c53247cb9b3bbcee" class="edge" stroke-dasharray="2,2" />
    <polyline points="599,168.66666666666669 619,168.66666666666669 619,252 637,252" id="4943abe2625e538c" class="edge" stroke-dasharray="2,2" />
    <polyline points="817,360.6666666666667 827,360.6666666666667 827,370.6666666666667 855,370.6666666666667" id="3b4eeb07ac59735f" class="edge" stroke-dasharray="2,2" />
    <polyline points="817,334.00000000000006 855,334" id="c1ba35b4802c1e38" class="edge" stroke-dasharray="2,2" />
    <polyline points="1035,260.6666666666667 1073,260.6666666666667" id="26e305d4f6186580" class="edge" stroke-dasharray="2,2" />
    <polyline points="1253,642 1273,642" id="0e8a0a3f52c41a35" class="edge" stroke-dasharray="2,2" />
    <polyline points="172,312 227,312" id="1aff90f63647cf1c" class="edge" />
    <polyline points="172,512 227,512" id="8dd102118fc19ae9" class="edge" />
    <polyline points="172,552 227,552" id="a76c57c13394dcc5" class="edge" />
    <polyline points="172,472 227,472" id="a1ff6080a4c073c4" class="edge" />
    <polyline points="172,432 227,432" id="d649100410d08e1f" class="edge" />
    <polyline points="172,392 227,392" id="4787af5b0566036c" class="edge" />
    <polyline points="380,22 419,22" id="b50f8f468d62e99c" class="edge" />
    <polyline points="380,272 391,272 391,222.00000000000003 419,222.00000000000003" id="20be143b93f907e2" class="edge" />
    <polyline points="598,65.33333333333334 637,65.33333333333334" id="ff9dacb998ad521d" class="edge" />
    <polyline points="598,258.6666666666667 637,258.6666666666667" id="8f886375dbeef9e3" class="edge" />
    <polyline points="816,108.66666666666667 827,108.66666666666667 827,327.33333333333337 855,327.33333333333337" id="a27f620f34b8a56f" class="edge" />
    <polyline points="1252,712 1273,712" id="8422b7e2cfab9c52" class="edge" />
    <polyline points="1252,300.6666666666667 1263,300.6666666666667 1263,287.3333333333333 1273,287.3333333333333" id="a53ad37b2a68f2cd" class="edge" />
    <polyline points="1252,220.66666666666669 1273,220.66666666666669" id="90faee555aba6145" class="edge" />
    <polyline points="380,672 445,672" id="8c061b5f8d95301b" class="edge" />
    <polyline points="380,592 445,592" id="23f4fbeb639a1c89" class="edge" />
    <polyline points="380,632 445,632" id="d21b6fbf1c4c522f" class="edge" />
    <rect id="heating-coil-1stage" class="node" x="419" y="108.66666666666667" width="180" height="80" />
    <g transform="translate(419,108.66666666666667)">
      <rect id="heating-coil-1stage:heating-coil-out" class="port connectionpoint node" x="-8" y="50.66666666666667" width="8" height="8" />
      <g id="heating-coil-1stage:heating-coil-out" class="port connectionpoint port" transform="translate(-8,50.66666666666667)">
        <text class="label" x="9" y="4" width="0" height="0">
          heating-coil-out
        </text>
      </g>
      <rect id="heating-coil-1stage:heating-coil-in" class="port connectionpoint node" x="-8" y="21.333333333333336" width="8" height="8" />
      <g id="heating-coil-1stage:heating-coil-in" class="port connectionpoint port" transform="translate(-8,21.333333333333336)">
        <text class="label" x="9" y="4" width="0" height="0">
          heating-coil-in
        </text>
      </g>
      <text class="label" x="50" y="5" width="80" height="20">
        heating-coil-1stage
      </text>
    </g>
    <rect id="economizer" class="node" x="419" y="352" width="180" height="80" />
    <g transform="translate(419,352)">
      <rect id="economizer:economizer-return-air" class="port connectionpoint node" x="-8" y="58" width="8" height="8" />
      <g id="economizer:economizer-return-air" class="port connectionpoint port" transform="translate(-8,58)">
        <text class="label" x="9" y="4" width="0" height="0">
          economizer-return-air
        </text>
      </g>
      <rect id="economizer:economizer-outside-air" class="port connectionpoint node" x="-8" y="36" width="8" height="8" />
      <g id="economizer:economizer-outside-air" class="port connectionpoint port" transform="translate(-8,36)">
        <text class="label" x="9" y="4" width="0" height="0">
          economizer-outside-air
        </text>
      </g>
      <rect id="economizer:economizer-mixed-air" class="port connectionpoint node" x="-8" y="14" width="8" height="8" />
      <g id="economizer:economizer-mixed-air" class="port connectionpoint port" transform="translate(-8,14)">
        <text class="label" x="9" y="4" width="0" height="0">
          economizer-mixed-air
        </text>
      </g>
      <text class="label" x="50" y="5" width="80" height="20">
        economizer
      </text>
    </g>
    <rect id="zone1-hvac-space" class="node" x="637" y="537.3333333333334" width="180" height="80" />
    <g transform="translate(637,537.3333333333334)">
      <rect id="zone1-hvac-space:zone1-hvac-space-in" class="port connectionpoint node" x="-8" y="50.66666666666667" width="8" height="8" />
      <g id="zone1-hvac-space:zone1-hvac-space-in" class="port connectionpoint port" transform="translate(-8,50.66666666666667)">
        <text class="label" x="9" y="4" width="0" height="0">
          zone1-hvac-space-in
        </text>
      </g>
      <rect id="zone1-hvac-space:zone1-hvac-space-out" class="port connectionpoint node" x="-8" y="21.333333333333336" width="8" height="8" />
      <g id="zone1-hvac-space:zone1-hvac-space-out" class="port connectionpoint port" transform="translate(-8,21.333333333333336)">
        <text class="label" x="9" y="4" width="0" height="0">
          zone1-hvac-space-out
        </text>
      </g>
      <text class="label" x="50" y="5" width="80" height="20">
        zone1-hvac-space
      </text>
    </g>
    <rect id="vav1-dmp" class="node" x="855" y="220.66666666666669" width="180" height="80" />
    <g transform="translate(855,220.66666666666669)">
      <rect id="vav1-dmp:vav1-dmp-out" class="port connectionpoint node" x="-8" y="21.333333333333336" width="8" height="8" />
      <g id="vav1-dmp:vav1-dmp-out" class="port connectionpoint port" transform="translate(-8,21.333333333333336)">
        <text class="label" x="9" y="4" width="0" height="0">
          vav1-dmp-out
        </text>
      </g>
      <rect id="vav1-dmp:vav1-dmp-in" class="port connectionpoint node" x="-8" y="50.66666666666667" width="8" height="8" />
      <g id="vav1-dmp:vav1-dmp-in" class="port connectionpoint port" transform="translate(-8,50.66666666666667)">
        <text class="label" x="9" y="4" width="0" height="0">
          vav1-dmp-in
        </text>
      </g>
      <text class="label" x="50" y="5" width="80" height="20">
        vav1-dmp
      </text>
    </g>
    <rect id="fan" class="node" x="637" y="307.33333333333337" width="180" height="80" />
    <g transform="translate(637,307.33333333333337)">
      <rect id="fan:fan-in" class="port connectionpoint node" x="-8" y="50.66666666666667" width="8" height="8" />
      <g id="fan:fan-in" class="port connectionpoint port" transform="translate(-8,50.66666666666667)">
        <text class="label" x="9" y="4" width="0" height="0">
          fan-in
        </text>
      </g>
      <rect id="fan:fan-out" class="port connectionpoint node" x="-8" y="21.333333333333336" width="8" height="8" />
      <g id="fan:fan-out" class="port connectionpoint port" transform="translate(-8,21.333333333333336)">
        <text class="label" x="9" y="4" width="0" height="0">
          fan-out
        </text>
      </g>
      <text class="label" x="50" y="5" width="80" height="20">
        fan
      </text>
    </g>
    <rect id="vav1-rhc" class="node" x="1073" y="602" width="180" height="80" />
    <g transform="translate(1073,602)">
      <rect id="vav1-rhc:vav1-rhc-out" class="port connectionpoint node" x="-8" y="21.333333333333336" width="8" height="8" />
      <g id="vav1-rhc:vav1-rhc-out" class="port connectionpoint port" transform="translate(-8,21.333333333333336)">
        <text class="label" x="9" y="4" width="0" height="0">
          vav1-rhc-out
        </text>
      </g>
      <rect id="vav1-rhc:vav1-rhc-in" class="port connectionpoint node" x="-8" y="50.66666666666667" width="8" height="8" />
      <g id="vav1-rhc:vav1-rhc-in" class="port connectionpoint port" transform="translate(-8,50.66666666666667)">
        <text class="label" x="9" y="4" width="0" height="0">
          vav1-rhc-in
        </text>
      </g>
      <text class="label" x="50" y="5" width="80" height="20">
        vav1-rhc
      </text>
    </g>
    <rect id="cooling-coil-2stage" class="node" x="201" y="162" width="180" height="80" />
    <g transform="translate(201,162)">
      <rect id="cooling-coil-2stage:cooling-coil-out" class="port connectionpoint node" x="-8" y="21.333333333333336" width="8" height="8" />
      <g id="cooling-coil-2stage:cooling-coil-out" class="port connectionpoint port" transform="translate(-8,21.333333333333336)">
        <text class="label" x="9" y="4" width="0" height="0">
          cooling-coil-out
        </text>
      </g>
      <rect id="cooling-coil-2stage:cooling-coil-in" class="port connectionpoint node" x="-8" y="50.66666666666667" width="8" height="8" />
      <g id="cooling-coil-2stage:cooling-coil-in" class="port connectionpoint port" transform="translate(-8,50.66666666666667)">
        <text class="label" x="9" y="4" width="0" height="0">
          cooling-coil-in
        </text>
      </g>
      <text class="label" x="50" y="5" width="80" height="20">
        cooling-coil-2stage
      </text>
    </g>
    <rect id="economizer-mix-air-flow" class="node s223property node" x="227" y="302" width="120" height="20" />
    <g transform="translate(227,302)">
      <text class="label" x="0" y="0" width="20" height="20">
        mixed air flow
      </text>
    </g>
    <rect id="economizer-mix-air-humidity" class="node s223property node" x="260" y="342" width="120" height="20" />
    <g transform="translate(260,342)">
      <text class="label" x="0" y="0" width="20" height="20">
        mixed air humidity
      </text>
    </g>
    <rect id="economizer-return-air-humidity" class="node s223property node" x="227" y="502" width="120" height="20" />
    <g transform="translate(227,502)">
      <text class="label" x="0" y="0" width="20" height="20">
        return air humidity
      </text>
    </g>
    <rect id="economizer-return-air-temp" class="node s223property node" x="227" y="542" width="120" height="20" />
    <g transform="translate(227,542)">
      <text class="label" x="0" y="0" width="20" height="20">
        return air temperature
      </text>
    </g>
    <rect id="economizer-outside-air-flow" class="node s223property node" x="227" y="462" width="120" height="20" />
    <g transform="translate(227,462)">
      <text class="label" x="0" y="0" width="20" height="20">
        outside air flow
      </text>
    </g>
    <rect id="economizer-outside-air-temp" class="node s223property node" x="227" y="422" width="120" height="20" />
    <g transform="translate(227,422)">
      <text class="label" x="0" y="0" width="20" height="20">
        outside air temperature
      </text>
    </g>
    <rect id="economizer-outside-air-humidity" class="node s223property node" x="227" y="382" width="120" height="20" />
    <g transform="translate(227,382)">
      <text class="label" x="0" y="0" width="20" height="20">
        outside air humidity
      </text>
    </g>
    <rect id="vav1-sup-air-flow" class="node s223property node" x="1273" y="705.3333333333334" width="120" height="20" />
    <g transform="translate(1273,705.3333333333334)">
      <text class="label" x="0" y="0" width="20" height="20">
        supply air flow
      </text>
    </g>
    <rect id="vav1-sup-air-temp" class="node s223property node" x="1273" y="274" width="120" height="20" />
    <g transform="translate(1273,274)">
      <text class="label" x="0" y="0" width="20" height="20">
        supply air temperature
      </text>
    </g>
    <rect id="vav1-sup-air-humidity" class="node s223property node" x="1273" y="214.00000000000003" width="120" height="20" />
    <g transform="translate(1273,214.00000000000003)">
      <text class="label" x="0" y="0" width="20" height="20">
        supply air humidity
      </text>
    </g>
    <rect id="zone1-temp" class="node s223property node" x="445" y="662" width="120" height="20" />
    <g transform="translate(445,662)">
      <text class="label" x="0" y="0" width="20" height="20">
        Temperature
      </text>
    </g>
    <rect id="zone1-flow" class="node s223property node" x="445" y="582" width="120" height="20" />
    <g transform="translate(445,582)">
      <text class="label" x="0" y="0" width="20" height="20">
        Zone Air Flow
      </text>
    </g>
    <rect id="zone1-humidity" class="node s223property node" x="445" y="622" width="120" height="20" />
    <g transform="translate(445,622)">
      <text class="label" x="0" y="0" width="20" height="20">
        Humidity
      </text>
    </g>
    <rect id="cooling-coil-power" class="node s223property node" x="419" y="15.333333333333334" width="120" height="20" />
    <g transform="translate(419,15.333333333333334)">
      <text class="label" x="0" y="0" width="20" height="20">
        instantaneous cooling output
      </text>
    </g>
    <rect id="cooling-coil-total-cooling" class="node s223property node" x="419" y="208.66666666666669" width="120" height="20" />
    <g transform="translate(419,208.66666666666669)">
      <text class="label" x="0" y="0" width="20" height="20">
        total delivered cooling
      </text>
    </g>
    <rect id="heating-coil-onoff" class="node s223property node" x="637" y="138.66666666666669" width="120" height="20" />
    <g transform="translate(637,138.66666666666669)">
      <text class="label" x="0" y="0" width="20" height="20">
        heating coil on/off
      </text>
    </g>
    <rect id="heating-coil-power" class="node s223property node" x="637" y="58.66666666666667" width="120" height="20" />
    <g transform="translate(637,58.66666666666667)">
      <text class="label" x="0" y="0" width="20" height="20">
        instantaneous heating output
      </text>
    </g>
    <rect id="heating-coil-total-heating" class="node s223property node" x="637" y="245.33333333333334" width="120" height="20" />
    <g transform="translate(637,245.33333333333334)">
      <text class="label" x="0" y="0" width="20" height="20">
        total delivered heating
      </text>
    </g>
    <rect id="fan-speed" class="node s223property node" x="855" y="360.6666666666667" width="120" height="20" />
    <g transform="translate(855,360.6666666666667)">
      <text class="label" x="0" y="0" width="20" height="20">
        Fan Speed
      </text>
    </g>
    <rect id="fan-power" class="node s223property node" x="855" y="320.6666666666667" width="120" height="20" />
    <g transform="translate(855,320.6666666666667)">
      <text class="label" x="0" y="0" width="20" height="20">
        fan power consumption
      </text>
    </g>
    <rect id="vav1-dmp-damper-pos" class="node s223property node" x="1073" y="250.66666666666669" width="120" height="20" />
    <g transform="translate(1073,250.66666666666669)">
      <text class="label" x="0" y="0" width="20" height="20">
        VAV Damper Position
      </text>
    </g>
    <rect id="vav1-rhc-onoff" class="node s223property node" x="1273" y="632" width="120" height="20" />
    <g transform="translate(1273,632)">
      <text class="label" x="0" y="0" width="20" height="20">
        reheat coil on/off
      </text>
    </g>
    <rect id="economizer-mix-air-flow-sensor" class="node sensor node" x="12" y="302" width="160" height="20" />
    <g transform="translate(12,302)">
      <rect id="economizer-mix-air-flow-sensor:observes" class="port node" x="160" y="10" width="0" height="0" />
      <g id="economizer-mix-air-flow-sensor:observes" class="port port" transform="translate(160,10)">
        <text class="label" x="1" y="1" width="0" height="0">
          observes
        </text>
      </g>
      <text class="label" x="0" y="0" width="20" height="20">
        economizer-mix-air-flow-sensor
      </text>
    </g>
    <rect id="economizer-return-air-humidity-sensor" class="node sensor node" x="12" y="502" width="160" height="20" />
    <g transform="translate(12,502)">
      <rect id="economizer-return-air-humidity-sensor:observes" class="port node" x="160" y="10" width="0" height="0" />
      <g id="economizer-return-air-humidity-sensor:observes" class="port port" transform="translate(160,10)">
        <text class="label" x="1" y="1" width="0" height="0">
          observes
        </text>
      </g>
      <text class="label" x="0" y="0" width="20" height="20">
        economizer-return-air-humidity-sensor
      </text>
    </g>
    <rect id="economizer-return-air-temp-sensor" class="node sensor node" x="12" y="542" width="160" height="20" />
    <g transform="translate(12,542)">
      <rect id="economizer-return-air-temp-sensor:observes" class="port node" x="160" y="10" width="0" height="0" />
      <g id="economizer-return-air-temp-sensor:observes" class="port port" transform="translate(160,10)">
        <text class="label" x="1" y="1" width="0" height="0">
          observes
        </text>
      </g>
      <text class="label" x="0" y="0" width="20" height="20">
        economizer-return-air-temp-sensor
      </text>
    </g>
    <rect id="economizer-outside-air-flow-sensor" class="node sensor node" x="12" y="462" width="160" height="20" />
    <g transform="translate(12,462)">
      <rect id="economizer-outside-air-flow-sensor:observes" class="port node" x="160" y="10" width="0" height="0" />
      <g id="economizer-outside-air-flow-sensor:observes" class="port port" transform="translate(160,10)">
        <text class="label" x="1" y="1" width="0" height="0">
          observes
        </text>
      </g>
      <text class="label" x="0" y="0" width="20" height="20">
        economizer-outside-air-flow-sensor
      </text>
    </g>
    <rect id="economizer-outside-air-temp-sensor" class="node sensor node" x="12" y="422" width="160" height="20" />
    <g transform="translate(12,422)">
      <rect id="economizer-outside-air-temp-sensor:observes" class="port node" x="160" y="10" width="0" height="0" />
      <g id="economizer-outside-air-temp-sensor:observes" class="port port" transform="translate(160,10)">
        <text class="label" x="1" y="1" width="0" height="0">
          observes
        </text>
      </g>
      <text class="label" x="0" y="0" width="20" height="20">
        economizer-outside-air-temp-sensor
      </text>
    </g>
    <rect id="economizer-outside-air-humidity-sensor" class="node sensor node" x="12" y="382" width="160" height="20" />
    <g transform="translate(12,382)">
      <rect id="economizer-outside-air-humidity-sensor:observes" class="port node" x="160" y="10" width="0" height="0" />
      <g id="economizer-outside-air-humidity-sensor:observes" class="port port" transform="translate(160,10)">
        <text class="label" x="1" y="1" width="0" height="0">
          observes
        </text>
      </g>
      <text class="label" x="0" y="0" width="20" height="20">
        economizer-outside-air-humidity-sensor
      </text>
    </g>
    <rect id="cooling-coil-power-sensor" class="node sensor node" x="220" y="12" width="160" height="20" />
    <g transform="translate(220,12)">
      <rect id="cooling-coil-power-sensor:observes" class="port node" x="160" y="10" width="0" height="0" />
      <g id="cooling-coil-power-sensor:observes" class="port port" transform="translate(160,10)">
        <text class="label" x="1" y="1" width="0" height="0">
          observes
        </text>
      </g>
      <text class="label" x="0" y="0" width="20" height="20">
        cooling-coil-power-sensor
      </text>
    </g>
    <rect id="cooling-coil-total-cooling-sensor" class="node sensor node" x="220" y="262" width="160" height="20" />
    <g transform="translate(220,262)">
      <rect id="cooling-coil-total-cooling-sensor:observes" class="port node" x="160" y="10" width="0" height="0" />
      <g id="cooling-coil-total-cooling-sensor:observes" class="port port" transform="translate(160,10)">
        <text class="label" x="1" y="1" width="0" height="0">
          observes
        </text>
      </g>
      <text class="label" x="0" y="0" width="20" height="20">
        cooling-coil-total-cooling-sensor
      </text>
    </g>
    <rect id="heating-coil-power-sensor" class="node sensor node" x="438" y="55.333333333333336" width="160" height="20" />
    <g transform="translate(438,55.333333333333336)">
      <rect id="heating-coil-power-sensor:observes" class="port node" x="160" y="10" width="0" height="0" />
      <g id="heating-coil-power-sensor:observes" class="port port" transform="translate(160,10)">
        <text class="label" x="1" y="1" width="0" height="0">
          observes
        </text>
      </g>
      <text class="label" x="0" y="0" width="20" height="20">
        heating-coil-power-sensor
      </text>
    </g>
    <rect id="heating-coil-total-heating-sensor" class="node sensor node" x="438" y="248.66666666666669" width="160" height="20" />
    <g transform="translate(438,248.66666666666669)">
      <rect id="heating-coil-total-heating-sensor:observes" class="port node" x="160" y="10" width="0" height="0" />
      <g id="heating-coil-total-heating-sensor:observes" class="port port" transform="translate(160,10)">
        <text class="label" x="1" y="1" width="0" height="0">
          observes
        </text>
      </g>
      <text class="label" x="0" y="0" width="20" height="20">
        heating-coil-total-heating-sensor
      </text>
    </g>
    <rect id="fan-power-sensor" class="node sensor node" x="656" y="98.66666666666667" width="160" height="20" />
    <g transform="translate(656,98.66666666666667)">
      <rect id="fan-power-sensor:observes" class="port node" x="160" y="10" width="0" height="0" />
      <g id="fan-power-sensor:observes" class="port port" transform="translate(160,10)">
        <text class="label" x="1" y="1" width="0" height="0">
          observes
        </text>
      </g>
      <text class="label" x="0" y="0" width="20" height="20">
        fan-power-sensor
      </text>
    </g>
    <rect id="vav1-sup-air-flow-sensor" class="node sensor node" x="1092" y="702" width="160" height="20" />
    <g transform="translate(1092,702)">
      <rect id="vav1-sup-air-flow-sensor:observes" class="port node" x="160" y="10" width="0" height="0" />
      <g id="vav1-sup-air-flow-sensor:observes" class="port port" transform="translate(160,10)">
        <text class="label" x="1" y="1" width="0" height="0">
          observes
        </text>
      </g>
      <text class="label" x="0" y="0" width="20" height="20">
        vav1-sup-air-flow-sensor
      </text>
    </g>
    <rect id="vav1-sup-air-temp-sensor" class="node sensor node" x="1092" y="290.6666666666667" width="160" height="20" />
    <g transform="translate(1092,290.6666666666667)">
      <rect id="vav1-sup-air-temp-sensor:observes" class="port node" x="160" y="10" width="0" height="0" />
      <g id="vav1-sup-air-temp-sensor:observes" class="port port" transform="translate(160,10)">
        <text class="label" x="1" y="1" width="0" height="0">
          observes
        </text>
      </g>
      <text class="label" x="0" y="0" width="20" height="20">
        vav1-sup-air-temp-sensor
      </text>
    </g>
    <rect id="vav1-sup-air-humidity-sensor" class="node sensor node" x="1092" y="210.66666666666669" width="160" height="20" />
    <g transform="translate(1092,210.66666666666669)">
      <rect id="vav1-sup-air-humidity-sensor:observes" class="port node" x="160" y="10" width="0" height="0" />
      <g id="vav1-sup-air-humidity-sensor:observes" class="port port" transform="translate(160,10)">
        <text class="label" x="1" y="1" width="0" height="0">
          observes
        </text>
      </g>
      <text class="label" x="0" y="0" width="20" height="20">
        vav1-sup-air-humidity-sensor
      </text>
    </g>
    <rect id="zone1-temp-sensor" class="node sensor node" x="220" y="662" width="160" height="20" />
    <g transform="translate(220,662)">
      <rect id="zone1-temp-sensor:observes" class="port node" x="160" y="10" width="0" height="0" />
      <g id="zone1-temp-sensor:observes" class="port port" transform="translate(160,10)">
        <text class="label" x="1" y="1" width="0" height="0">
          observes
        </text>
      </g>
      <text class="label" x="0" y="0" width="20" height="20">
        zone1-temp-sensor
      </text>
    </g>
    <rect id="zone1-flow-sensor" class="node sensor node" x="220" y="582" width="160" height="20" />
    <g transform="translate(220,582)">
      <rect id="zone1-flow-sensor:observes" class="port node" x="160" y="10" width="0" height="0" />
      <g id="zone1-flow-sensor:observes" class="port port" transform="translate(160,10)">
        <text class="label" x="1" y="1" width="0" height="0">
          observes
        </text>
      </g>
      <text class="label" x="0" y="0" width="20" height="20">
        zone1-flow-sensor
      </text>
    </g>
    <rect id="zone1-humidity-sensor" class="node sensor node" x="220" y="622" width="160" height="20" />
    <g transform="translate(220,622)">
      <rect id="zone1-humidity-sensor:observes" class="port node" x="160" y="10" width="0" height="0" />
      <g id="zone1-humidity-sensor:observes" class="port port" transform="translate(160,10)">
        <text class="label" x="1" y="1" width="0" height="0">
          observes
        </text>
      </g>
      <text class="label" x="0" y="0" width="20" height="20">
        zone1-humidity-sensor
      </text>
    </g>
  </g>
</svg>
